<svg width="518" height="72" viewBox="0 0 518 72" fill="none" xmlns="http://www.w3.org/2000/svg">
<path d="M62.9235 55.492L33.7428 72V59.1456L51.9245 49.1413L62.9235 55.492ZM64.9224 53.6844V19.1668L54.2487 25.3358V47.525L64.9224 53.6844ZM1.99894 55.492L31.1796 72V59.1456L12.9883 49.1413L1.99894 55.492ZM0 53.6844V19.1668L10.6737 25.3358V47.525L0 53.6844ZM1.25292 16.9288L31.1796 0V12.424L12.0032 22.9734L11.8502 23.0595L1.25292 16.9288ZM63.6695 16.9288L33.7428 0V12.424L52.9192 22.9639L53.0723 23.0499L63.6695 16.9288Z" fill="#8ED6FB"/>
<path d="M31.1796 56.2189L13.237 46.3485V26.8087L31.1796 37.1668V56.2189ZM33.7428 56.2189L51.6854 46.3581V26.8087L33.7428 37.1668V56.2189ZM14.4516 24.5515L32.4612 14.6525L50.4708 24.5515L32.4612 34.9479L14.4516 24.5515Z" fill="#1C78C0"/>
<g clip-path="url(#clip0_232_219)">
<path d="M94.377 63.0938L88.9224 2H148.922L143.468 63.0938L118.856 70" fill="#E34F26"/>
<path d="M118.989 64.6875L138.812 59.2422L143.468 6.91406H118.989" fill="#EF652A"/>
<path d="M118.989 29.625H109.011L108.346 21.9219H118.989V14.4844H118.856H100.098L100.231 16.4766L102.093 37.1953H118.989V29.625ZM118.989 49.1484H118.856L110.475 46.8906L109.942 40.9141H105.951H102.492L103.424 52.7344L118.856 56.9844H118.989V49.1484Z" fill="#EBEBEB"/>
<path d="M118.856 29.625V37.1953H128.169L127.237 46.8906L118.856 49.1484V56.9844L134.288 52.7344L134.421 51.4062L136.151 31.6172L136.417 29.625H134.288H118.856ZM118.856 14.4844V19.1328V21.9219H137.082L137.215 20.3281L137.614 16.4766L137.747 14.4844H118.856Z" fill="white"/>
</g>
<g clip-path="url(#clip1_232_219)">
<path d="M247.816 41.3444C244.774 41.3632 242.14 42.1699 239.931 43.3707C239.115 41.5884 238.3 40.031 238.164 38.8678C238.011 37.5169 237.824 36.6914 238.011 35.0778C238.198 33.4643 239.047 31.1753 239.047 30.9876C239.031 30.8188 238.861 29.9933 237.11 29.9745C235.36 29.9558 233.847 30.3497 233.678 30.8563C233.508 31.3629 233.168 32.5261 232.947 33.7269C232.641 35.4906 229.446 41.7385 227.628 45.0218C227.033 43.746 226.523 42.6202 226.421 41.7197C226.268 40.3688 226.081 39.5432 226.268 37.9297C226.455 36.3161 227.305 34.0271 227.305 33.8395C227.288 33.6707 227.118 32.8452 225.368 32.8263C223.617 32.8076 222.105 33.2016 221.935 33.7082C221.765 34.2147 221.578 35.4155 221.204 36.5788C220.847 37.7421 216.599 48.1739 215.494 50.8945C214.933 52.2829 214.441 53.3898 214.084 54.1403C213.727 54.8908 214.067 54.1966 214.033 54.2717C213.727 54.9096 213.557 55.266 213.557 55.266V55.2848C213.319 55.7538 213.064 56.2041 212.945 56.2041C212.86 56.2041 212.69 54.9471 212.979 53.221C213.608 49.5998 215.137 43.9524 215.12 43.746C215.12 43.6522 215.409 42.6578 214.135 42.1512C212.894 41.6446 212.452 42.489 212.35 42.489C212.248 42.489 212.163 42.7892 212.163 42.7892C212.163 42.7892 213.54 36.4287 209.529 36.4287C207.014 36.4287 203.548 39.4495 201.831 42.2075C200.744 42.8642 198.433 44.2526 195.985 45.7348C195.051 46.2976 194.082 46.898 193.165 47.4422L192.978 47.217C188.117 41.4945 179.128 37.4419 179.502 29.7493C179.638 26.9538 180.521 19.5802 196.767 10.6493C210.073 3.33206 220.728 5.33963 222.581 9.80505C225.215 16.1843 216.888 28.042 203.055 29.7493C197.787 30.4061 195.017 28.1546 194.32 27.3102C193.589 26.4285 193.487 26.3909 193.216 26.5597C192.774 26.8224 193.046 27.6104 193.216 28.0795C193.623 29.2615 195.323 31.3629 198.212 32.4136C200.744 33.333 206.929 33.8395 214.407 30.6499C222.785 27.0664 229.327 17.1224 227.407 8.81065C225.453 0.348862 212.741 -2.42795 200.727 2.28138C193.572 5.09572 185.823 9.48609 180.249 15.2461C173.622 22.0756 172.568 28.042 173.01 30.5186C174.556 39.3556 185.585 45.1157 190.004 49.3747C189.783 49.506 189.579 49.6373 189.392 49.7499C187.183 50.9507 178.771 55.8102 176.664 60.951C174.285 66.7673 177.038 70.9513 178.873 71.5141C184.549 73.2591 190.361 70.1257 193.504 64.9661C196.631 59.8065 196.257 53.1084 194.813 50.0501L194.762 49.9375L196.495 48.8118C197.617 48.0801 198.722 47.4047 199.69 46.823C199.146 48.4554 198.756 50.3878 198.552 53.2022C198.314 56.5043 199.537 60.7821 201.152 62.4707C201.865 63.2025 202.715 63.2212 203.242 63.2212C205.111 63.2212 205.961 61.5139 206.895 59.4688C208.051 56.9734 209.071 54.084 209.071 54.084C209.071 54.084 207.796 61.9079 211.28 61.9079C212.554 61.9079 213.829 60.088 214.407 59.1499V59.1686C214.407 59.1686 214.441 59.1123 214.509 58.9809C214.645 58.7558 214.713 58.6245 214.713 58.6245V58.587C215.222 57.6113 216.361 55.3786 218.06 51.6825C220.253 46.9169 222.36 40.9505 222.36 40.9505C222.36 40.9505 222.564 42.4139 223.192 44.8155C223.566 46.2414 224.382 47.7986 225.011 49.3184C224.501 50.1064 224.195 50.5567 224.195 50.5567L224.212 50.5754C223.804 51.1758 223.345 51.8138 222.87 52.4517C221.136 54.7407 219.063 57.3487 218.791 58.0992C218.468 58.9809 218.536 59.6377 219.165 60.163C219.624 60.5383 220.439 60.6133 221.306 60.5383C222.87 60.4257 223.957 59.9941 224.501 59.7314C225.351 59.3937 226.319 58.8872 227.254 58.1367C228.953 56.7483 229.99 54.7782 229.888 52.1515C229.837 50.7068 229.412 49.2809 228.885 47.93C229.038 47.6861 229.191 47.4422 229.344 47.1795C232.029 42.8454 234.102 38.0798 234.102 38.0798C234.102 38.0798 234.306 39.5432 234.935 41.9448C235.258 43.1644 235.904 44.4965 236.481 45.8098C233.966 48.0801 232.386 50.7068 231.842 52.433C230.84 55.6225 231.621 57.0672 233.1 57.4049C233.762 57.555 234.714 57.2173 235.428 56.8796C236.311 56.5607 237.382 56.0165 238.368 55.2098C240.067 53.8214 241.698 51.8888 241.614 49.2809C241.563 48.0801 241.274 46.898 240.883 45.7723C243.024 44.7967 245.794 44.2338 249.312 44.7029C256.874 45.6785 258.369 50.8945 258.08 53.0709C257.792 55.2473 256.211 56.4481 255.684 56.8233C255.157 57.1798 254.988 57.3111 255.039 57.5738C255.107 57.9678 255.344 57.9491 255.803 57.874C256.432 57.7614 259.78 56.0915 259.916 52.0764C260.12 46.9169 255.684 41.2882 247.816 41.3444ZM189.494 63.0524C186.996 66.0731 183.478 67.2176 181.983 66.242C180.368 65.21 180.997 60.7634 184.073 57.555C185.942 55.6037 188.372 53.8026 189.97 52.6956C190.327 52.4517 190.87 52.0952 191.516 51.6637C191.618 51.5886 191.686 51.5511 191.686 51.5511C191.805 51.476 191.941 51.3823 192.077 51.2884C193.216 55.8664 192.128 59.8815 189.494 63.0524ZM207.762 49.3371C206.895 51.6825 205.06 57.7051 203.956 57.3674C203.004 57.086 202.426 52.5267 203.769 48.0238C204.448 45.7536 205.893 43.0518 206.742 42.0011C208.119 40.3125 209.614 39.7497 209.988 40.4438C210.43 41.3444 208.306 47.8737 207.762 49.3371ZM222.836 57.2923C222.462 57.4988 222.122 57.6489 221.969 57.5363C221.85 57.4612 222.122 57.1798 222.122 57.1798C222.122 57.1798 224.008 54.9471 224.756 53.9151C225.181 53.3147 225.69 52.6206 226.234 51.8326V52.0577C226.234 54.7595 223.889 56.5607 222.836 57.2923ZM234.459 54.3654C234.187 54.1403 234.221 53.4461 235.139 51.2697C235.496 50.4066 236.312 48.9619 237.722 47.5923C237.892 48.1552 237.994 48.6992 237.977 49.2058C237.96 52.5831 235.785 53.8401 234.459 54.3654Z" fill="#CF649A"/>
</g>
<g clip-path="url(#clip2_232_219)">
<path d="M351.922 2H283.922V70H351.922V2Z" fill="#F7DF1E"/>
<path d="M329.601 55.1253C330.971 57.3617 332.753 59.0056 335.905 59.0056C338.552 59.0056 340.244 57.6823 340.244 55.8538C340.244 53.6627 338.506 52.8867 335.592 51.6119L333.994 50.9265C329.383 48.9621 326.32 46.5011 326.32 41.2986C326.32 36.5062 329.971 32.858 335.678 32.858C339.741 32.858 342.661 34.2719 344.766 37.9742L339.79 41.1691C338.695 39.2046 337.513 38.4307 335.678 38.4307C333.806 38.4307 332.62 39.618 332.62 41.1691C332.62 43.086 333.807 43.8621 336.549 45.0494L338.146 45.7337C343.576 48.0619 346.641 50.4354 346.641 55.7718C346.641 61.5248 342.122 64.6766 336.053 64.6766C330.118 64.6766 326.284 61.8486 324.408 58.1421L329.601 55.1253ZM307.028 55.679C308.032 57.4599 308.945 58.9656 311.141 58.9656C313.24 58.9656 314.565 58.1443 314.565 54.9504V33.2228H320.954V55.0368C320.954 61.6533 317.075 64.6647 311.413 64.6647C306.297 64.6647 303.334 62.017 301.827 58.828L307.028 55.679Z" fill="black"/>
</g>
<g clip-path="url(#clip3_232_219)">
<path d="M413.237 42.4113C416.911 42.4113 419.889 39.5408 419.889 35.9999C419.889 32.459 416.911 29.5885 413.237 29.5885C409.564 29.5885 406.586 32.459 406.586 35.9999C406.586 39.5408 409.564 42.4113 413.237 42.4113Z" fill="#3B7DA1"/>
<path d="M447.308 36.0002C447.308 34.8294 446.668 33.5097 445.06 32.1105C443.456 30.7148 441.04 29.3845 437.916 28.2345C431.678 25.9391 422.953 24.4865 413.237 24.4865C403.521 24.4865 394.796 25.9391 388.559 28.2345C385.434 29.3845 383.019 30.7148 381.415 32.1105C379.807 33.5097 379.167 34.8294 379.167 36.0002C379.167 37.1709 379.807 38.4897 381.415 39.8888C383.019 41.2846 385.434 42.6157 388.559 43.7658C394.796 46.0611 403.521 47.5128 413.237 47.5129C422.953 47.5129 431.678 46.0612 437.916 43.7658C441.041 42.6157 443.456 41.2846 445.06 39.8888C446.668 38.4897 447.308 37.1709 447.308 36.0002ZM450.552 36.0002C450.552 38.4566 449.194 40.5933 447.19 42.3371C445.182 44.0841 442.37 45.5838 439.037 46.8107C432.356 49.2694 423.233 50.758 413.237 50.758C403.241 50.7579 394.119 49.2694 387.438 46.8107C384.104 45.5838 381.293 44.0841 379.285 42.3371C377.281 40.5933 375.922 38.4566 375.922 36.0002C375.922 33.5437 377.281 31.4071 379.285 29.6632C381.293 27.9161 384.104 26.4166 387.438 25.1896C394.119 22.7309 403.241 21.2424 413.237 21.2423C423.233 21.2423 432.356 22.7309 439.037 25.1896C442.371 26.4166 445.182 27.9161 447.19 29.6632C449.194 31.4071 450.552 33.5437 450.552 36.0002Z" fill="#3B7DA1"/>
<path d="M394.602 4.78824C396.755 3.58974 399.307 3.64334 401.87 4.44254C404.437 5.24278 407.19 6.83868 409.964 9.01188C415.521 13.3646 421.427 20.2433 426.432 28.5988C431.436 36.9529 434.668 45.3285 435.803 52.1574C436.37 55.5659 436.429 58.6802 435.86 61.2472C435.288 63.8217 434.039 66.0055 431.873 67.2111C429.72 68.4096 427.168 68.3569 424.605 67.5578C422.038 66.7575 419.285 65.1616 416.511 62.9884C410.955 58.6357 405.048 51.7571 400.043 43.4015C395.039 35.0473 391.807 26.6719 390.672 19.8429C390.106 16.4345 390.046 13.3201 390.615 10.7531C391.187 8.17853 392.436 5.99379 394.602 4.78824ZM400.905 7.5402C398.837 6.89566 397.285 7.00904 396.18 7.62418C395.087 8.23227 394.23 9.44336 393.783 11.4552C393.335 13.4749 393.346 16.1392 393.873 19.3107C394.926 25.642 397.975 33.6342 402.827 41.7345C407.679 49.8333 413.338 56.3815 418.512 60.4347C421.103 62.4644 423.507 63.8166 425.571 64.4601C427.638 65.1046 429.19 64.9913 430.295 64.3761C431.388 63.768 432.245 62.5563 432.692 60.5441C433.14 58.5246 433.129 55.8608 432.602 52.6896C431.549 46.3584 428.5 38.3661 423.648 30.2658C418.796 22.1669 413.137 15.6189 407.963 11.5656C405.372 9.53577 402.968 8.1837 400.905 7.5402Z" fill="#3B7DA1"/>
<path d="M424.605 4.44268C427.168 3.64358 429.719 3.59022 431.872 4.78839C434.039 5.99392 435.288 8.17862 435.86 10.7532C436.429 13.3203 436.37 16.4346 435.803 19.8431C434.668 26.672 431.436 35.0475 426.432 43.4017C421.427 51.7572 415.521 58.6358 409.964 62.9886C407.19 65.1618 404.437 66.7577 401.87 67.5579C399.307 68.3571 396.756 68.4097 394.602 67.2112C392.436 66.0057 391.187 63.8218 390.616 61.2474C390.046 58.6803 390.106 55.566 390.672 52.1575C391.807 45.3286 395.039 36.9531 400.043 28.5989C405.048 20.2434 410.955 13.3648 416.511 9.01202C419.285 6.83883 422.038 5.24293 424.605 4.44268ZM430.295 7.62432C429.19 7.0092 427.638 6.89584 425.571 7.54034C423.507 8.18384 421.103 9.53595 418.512 11.5657C413.338 15.619 407.679 22.1671 402.827 30.2659C397.975 38.3663 394.926 46.3585 393.873 52.6898C393.346 55.861 393.335 58.5247 393.783 60.5442C394.23 62.5564 395.087 63.7682 396.18 64.3763C397.285 64.9914 398.838 65.1048 400.905 64.4603C402.968 63.8168 405.372 62.4646 407.963 60.4349C413.137 56.3816 418.796 49.8334 423.648 41.7347C428.5 33.6343 431.549 25.6421 432.602 19.3108C433.129 16.1394 433.14 13.475 432.692 11.4554C432.245 9.44355 431.388 8.23244 430.295 7.62432Z" fill="#3B7DA1"/>
</g>
<g clip-path="url(#clip4_232_219)">
<path d="M474.596 57.3332C474.596 51.4421 479.372 46.6665 485.263 46.6665H495.93V57.3332C495.93 63.2242 491.154 67.9998 485.263 67.9998C479.372 67.9998 474.596 63.2242 474.596 57.3332Z" fill="#0ACF83"/>
<path d="M495.93 35.9999C495.93 30.1089 500.705 25.3333 506.596 25.3333C512.487 25.3333 517.263 30.1089 517.263 35.9999C517.263 41.891 512.487 46.6666 506.596 46.6666C500.705 46.6666 495.93 41.8909 495.93 35.9999Z" fill="#1ABCFE"/>
<path d="M474.596 35.9998C474.596 41.8909 479.372 46.6665 485.263 46.6665H495.93V25.3332H485.263C479.372 25.3332 474.596 30.1088 474.596 35.9998Z" fill="#A259FF"/>
<path d="M495.93 4V25.3333H506.596C512.487 25.3333 517.263 20.5577 517.263 14.6667C517.263 8.77563 512.487 4 506.596 4H495.93Z" fill="#FF7262"/>
<path d="M474.596 14.6666C474.596 20.5576 479.372 25.3333 485.263 25.3333H495.93V3.99992H485.263C479.372 3.99992 474.596 8.77555 474.596 14.6666Z" fill="#F24E1E"/>
</g>
<defs>
<clipPath id="clip0_232_219">
<rect width="60" height="68" fill="white" transform="translate(88.9224 2)"/>
</clipPath>
<clipPath id="clip1_232_219">
<rect width="87" height="72" fill="white" transform="translate(172.922)"/>
</clipPath>
<clipPath id="clip2_232_219">
<rect width="68" height="68" fill="white" transform="translate(283.922 2)"/>
</clipPath>
<clipPath id="clip3_232_219">
<rect width="74.6299" height="64.2756" fill="white" transform="translate(375.922 3.86222)"/>
</clipPath>
<clipPath id="clip4_232_219">
<rect width="43" height="64" fill="white" transform="translate(474.552 4)"/>
</clipPath>
</defs>
</svg>
